<svg xmlns="http://www.w3.org/2000/svg" version="1.1" xmlns:xlink="http://www.w3.org/1999/xlink" xmlns:svgjs="http://svgjs.dev/svgjs" width="1500" height="1500" viewBox="0 0 1500 1500"><rect width="1500" height="1500" fill="#000000"></rect><g transform="matrix(0.6666666666666666,0,0,0.6666666666666666,248.75628215664483,401.5462365591399)"><svg viewBox="0 0 357 248" data-background-color="#171722" preserveAspectRatio="xMidYMid meet" height="1042" width="1500" xmlns="http://www.w3.org/2000/svg" xmlns:xlink="http://www.w3.org/1999/xlink"><g id="tight-bounds" transform="matrix(1,0,0,1,0.4440072700778046,0.4000000000000057)"><svg viewBox="0 0 356.1119854598444 247.2" height="247.2" width="356.1119854598444"><g><svg viewBox="0 0 395.52 274.55561169542534" height="247.2" width="356.1119854598444"><g transform="matrix(1,0,0,1,0,180.59780451206052)"><svg viewBox="0 0 395.52 93.95780718336484" height="93.95780718336484" width="395.52"><g id="textblocktransform"><svg viewBox="0 0 395.52 93.95780718336484" height="93.95780718336484" width="395.52" id="textblock"><g><svg viewBox="0 0 395.52 93.95780718336484" height="93.95780718336484" width="395.52"><g transform="matrix(1,0,0,1,0,0)"><svg width="395.52" viewBox="3.5 -37.5 168.53 37.7" height="93.95780718336484" data-palette-color="#ff8c00"><g class="wordmark-text-0" data-fill-palette-color="primary" id="text-0"><path d="M12.9-2.4L12.9 0 3.5 0 3.5-2.4 6.5-2.75 6.5-32.2 3.75-32.55 3.75-35 12.65-35 12.65-32.55 9.9-32.2 9.9-2.75 12.9-2.4ZM23.65-25.25L23.65-22.25Q27.4-25 30.75-25.15L30.75-25.15Q33.8-25.15 35.45-24.4 37.1-23.65 38.17-22.28 39.25-20.9 39.25-18.4L39.25-18.4 39.25 0 36 0 36-17.55Q36-19.4 35.2-20.4L35.2-20.4Q33.6-22.25 30.3-22.25L30.3-22.25Q27.15-22.1 23.65-20.2L23.65-20.2 23.65 0 20.4 0 20.4-25 23.65-25.25ZM58.05 0L54.9 0 54.9-32 45-32 45.25-35 67.9-35 67.65-32 58.05-32 58.05 0ZM73.54-6.4L73.54-6.4Q72.64-8.8 72.64-12L72.64-12Q72.64-18.15 76.09-21.68 79.54-25.2 84.74-25.2L84.74-25.2Q92.89-25.2 95.44-18.6L95.44-18.6Q96.39-16.2 96.39-13L96.39-13Q96.39-6.85 92.94-3.33 89.49 0.2 84.29 0.2L84.29 0.2Q76.14 0.2 73.54-6.4ZM75.89-12.35Q75.89-7.75 78.27-5.23 80.64-2.7 84.39-2.7 88.14-2.7 90.64-5.38 93.14-8.05 93.14-12.65 93.14-17.25 90.79-19.78 88.44-22.3 84.67-22.3 80.89-22.3 78.39-19.63 75.89-16.95 75.89-12.35ZM108.29-3.2L108.29-3.2Q109.39-2.8 111.79-2.8 114.19-2.8 117.99-4.75L117.99-4.75 117.99-25 121.24-25.25 121.24 0 117.99 0 117.99-2.7Q114.29 0.15 110.44 0.15L110.44 0.15Q105.64 0.15 103.49-2.7L103.49-2.7Q102.39-4.1 102.39-6.6L102.39-6.6 102.39-25 105.64-25.25 105.64-7.45Q105.64-4.35 108.29-3.2ZM144.54-16.4L144.29-21.65Q142.24-22.3 140.09-22.3L140.09-22.3Q135.74-22.3 133.11-19.5 130.49-16.7 130.49-11.6L130.49-11.6Q130.49-2.7 138.74-2.7L138.74-2.7Q142.04-2.7 145.54-3.8L145.54-3.8Q146.24-4 146.39-4.1L146.39-4.1 147.19-1.4Q145.44-0.35 140.84 0.1L140.84 0.1Q139.54 0.2 138.09 0.2L138.09 0.2Q133.84 0.2 131.09-1.9L131.09-1.9Q127.24-4.8 127.24-11.45 127.24-18.1 130.81-21.68 134.39-25.25 140.04-25.25L140.04-25.25Q141.84-25.25 143.86-24.78 145.89-24.3 146.99-23.3L146.99-23.3 146.99-16.75 144.54-16.4ZM155.94-37.5L155.94-22.15Q159.88-25 163.53-25.15L163.53-25.15Q166.63-25.15 168.28-24.4 169.94-23.65 170.99-22.28 172.03-20.9 172.03-18.4L172.03-18.4 172.03 0 168.78 0 168.78-17.55Q168.78-19.4 167.99-20.4L167.99-20.4Q166.38-22.25 163.09-22.25L163.09-22.25Q159.84-22.1 155.94-20.15L155.94-20.15 155.94 0 152.69 0 152.69-37.25 155.94-37.5Z" fill="#ffffff" data-fill-palette-color="primary"></path></g></svg></g></svg></g></svg></g></svg></g><g transform="matrix(1,0,0,1,92.11895009220059,0)"><svg viewBox="0 0 211.2820998155988 158.41662122344047" height="158.41662122344047" width="211.2820998155988"><g><svg xmlns:x="http://ns.adobe.com/Extensibility/1.0/" xmlns:i="http://ns.adobe.com/AdobeIllustrator/10.0/" xmlns:graph="http://ns.adobe.com/Graphs/1.0/" xmlns="http://www.w3.org/2000/svg" xmlns:xlink="http://www.w3.org/1999/xlink" version="1.1" x="0" y="0" viewBox="14.325 23.25 71.675 53.741" enable-background="new 0 0 100 100" xml:space="preserve" height="158.41662122344047" width="211.2820998155988" class="icon-icon-0" data-fill-palette-color="accent" id="icon-0"><g fill="#fe5200" data-fill-palette-color="accent"><path d="M18.434 76.986L16.779 76.961 18.011 75.854C18.051 75.817 22.042 72.162 22.785 65.986 17.402 62.641 14.325 57.744 14.325 52.497 14.325 42.818 24.875 34.942 37.843 34.942 38.249 34.942 38.653 34.949 39.054 34.964 51.561 35.437 61.36 43.139 61.36 52.496 61.36 54.678 60.825 56.814 59.773 58.84 56.244 65.652 47.635 70.054 37.843 70.054 36.224 70.054 34.595 69.926 32.992 69.673 31.364 72.59 27.468 76.991 18.856 76.991 18.717 76.991 18.575 76.989 18.434 76.986" fill="#ffffff" data-fill-palette-color="accent"></path><g fill="#fe5200" data-fill-palette-color="accent"><path d="M77.499 53.303C82.682 50.206 86 45.469 86 40.156 86 30.819 75.764 23.25 63.134 23.25 54.047 23.25 46.736 26.791 43.049 32.468 55.572 33.208 64.76 41.458 64.76 50.993 64.76 53.071 64.294 55.108 63.383 57.055A31 31 0 0 0 68.336 56.616C69.877 59.62 73.671 64.141 82.53 63.996 82.53 63.996 78.146 60.075 77.499 53.303" fill="#ffffff" data-fill-palette-color="accent"></path></g></g></svg><g></g></g></svg></g><g></g></svg></g><defs></defs></svg><rect width="356.1119854598444" height="247.2" fill="none" stroke="none" visibility="hidden"></rect></g></svg></g></svg>